<?xml version="1.0" encoding="utf-8"?>
<!-- Generator: Adobe Illustrator 23.1.1, SVG Export Plug-In . SVG Version: 6.00 Build 0)  -->
<svg version="1.1" id="Ebene_1" xmlns="http://www.w3.org/2000/svg" xmlns:xlink="http://www.w3.org/1999/xlink" x="0px" y="0px"
	 viewBox="0 0 86.7 24" style="enable-background:new 0 0 86.7 24;" xml:space="preserve">
<path d="M47.2,23.8c-7.8,0-12-4.9-12-11.2c0-6.7,4.8-12.1,13.3-12.1c6.2,0,10.7,4,10.7,9.6c0,8.7-10.3,11-9.8,6
	c-0.7,1.1-1.9,2.4-4.1,2.4c-2.5,0-4.1-1.8-4.1-4.8c0-4.4,2.9-8.2,6.4-8.2c1.7,0,2.8,0.9,3.3,2.2l0.5-1.6h2.3
	c-0.2,0.8-2.3,8.5-2.3,8.5c-0.6,2.7,1.4,2.7,3.1,1.3c3.3-2.6,3.5-9.3-1-12.1c-4.8-2.9-15.8-1.1-15.8,8.7c0,5.6,4,9.4,9.8,9.4
	c3.4,0,5.5-0.9,7.3-1.9l1.2,1.7C54.3,22.6,51.5,23.8,47.2,23.8z M44.9,9.5c-0.7,1.3-1.2,3.1-1.2,4.4c0,3.6,3.5,3.6,5.3,0.2
	c0.7-1.4,1.2-3.2,1.2-4.5C50.1,6.8,46.6,6.2,44.9,9.5z"/>
<path d="M12,13L0,3.2h24C24,3.2,12,13,12,13z M12,15.5L0,5.8v15.4h24V5.8L12,15.5z"/>
<path d="M84.2,22.9L83,23.6C76,27.2,63.9,6.1,70.7,2.1l1.1-0.6l3.7,6.5l-1.1,0.6c-2.1,1.2,2.8,9.7,4.9,8.5l1.2-0.6
	C80.4,16.5,84.2,22.9,84.2,22.9z M74.3,0l-1.7,1l3.7,6.5l1.7-1L74.3,0z M83,15l-1.7,1l3.7,6.5l1.7-1C86.7,21.5,83,15,83,15z"/>
</svg>
